<svg xmlns="http://www.w3.org/2000/svg" xmlns:xlink="http://www.w3.org/1999/xlink" width="637.469" height="629.443" viewBox="0 0 637.469 629.443">
  <defs>
    <filter id="Path_33" x="0" y="255.486" width="637.469" height="373.957" filterUnits="userSpaceOnUse">
      <feOffset dy="10" input="SourceAlpha"/>
      <feGaussianBlur stdDeviation="29.5" result="blur"/>
      <feFlood flood-color="#367df3" flood-opacity="0.455"/>
      <feComposite operator="in" in2="blur"/>
      <feComposite in="SourceGraphic"/>
    </filter>
  </defs>
  <g id="Group_24" data-name="Group 24" transform="translate(45.96)">
    <g id="Group_2" data-name="Group 2" transform="translate(42.54 239.969)">
      <path id="Path_30" data-name="Path 30" d="M193.816,341.477l-9.092-5.277L122.7,372l9.174,5.2Z" transform="translate(-65.628 -303.233)" fill="#fff"/>
      <path id="Path_31" data-name="Path 31" d="M453.725,457.232l4.79-2.76,5.033-2.923-71.441-41.16L238.833,321.9l-7.712,4.465L97.9,403.245l224.714,129.73Z" transform="translate(-60.962 -300.542)" fill="#fff"/>
      <path id="Path_32" data-name="Path 32" d="M503.373,539.137c-6.657-3.816-17.373-3.816-24.03,0s-6.657,10.067,0,13.882,17.373,3.816,24.03,0S510.03,542.952,503.373,539.137Z" transform="translate(-131.799 -340.881)" fill="#fff"/>
      <g transform="matrix(1, 0, 0, 1, -88.5, -239.97)" filter="url(#Path_33)">
        <path id="Path_33-2" data-name="Path 33" d="M506.375,498.834l-4.384,2.517-135.332,78.1c-9.58,5.52-26.466,4.79-37.507-1.542L63.279,424.389l-1.7-.974c-5.926-3.41-9.011-7.794-9.174-12.015v24.923h0c0,4.222,3.085,8.768,9.174,12.259l267.66,154.491c11.041,6.413,27.927,7.063,37.507,1.542l139.716-80.7c4.3-2.517,6.413-5.845,6.413-9.417V489.336C512.788,492.908,510.677,496.317,506.375,498.834Z" transform="translate(36.1 -77.41)" fill="#367df3"/>
      </g>
      <path id="Path_34" data-name="Path 34" d="M61.492,401.542l1.7.974L329.152,556.033c11.041,6.413,27.927,7.063,37.507,1.542l135.332-78.1,4.384-2.517c4.3-2.517,6.413-5.845,6.413-9.417,0-4.3-3.085-8.768-9.174-12.259L236.036,300.875c-11.041-6.413-27.927-7.063-37.506-1.542L58.813,379.947c-4.222,2.435-6.332,5.683-6.413,9.174v.487C52.481,393.748,55.566,398.132,61.492,401.542ZM423.974,507.729c-6.657,3.816-17.373,3.816-24.03,0s-6.657-10.067,0-13.882,17.373-3.816,24.03,0S430.631,503.914,423.974,507.729ZM171.5,328.559l9.092,5.277-61.943,35.72-9.092-5.277Zm51.064-7.144,7.712-4.465,153.273,88.489,71.441,41.241-5.033,2.923-4.709,2.76L314.052,528.106,89.338,398.295Z" transform="translate(-52.4 -295.591)" fill="#8bb6ff"/>
    </g>
    <path id="Path_27" data-name="Path 27" d="M362.6,0a28.436,28.436,0,0,0-19.971,8.2,21.107,21.107,0,0,0-8.2-1.624A21.326,21.326,0,0,0,313,27.846a5.631,5.631,0,0,0,5.683,5.6H385.09a5.683,5.683,0,0,0,5.683-5.6A28.118,28.118,0,0,0,362.6,0Z" transform="translate(-58.898)" fill="#6ea4ff"/>
    <path id="Path_28" data-name="Path 28" d="M61.27,74.3A28.019,28.019,0,0,1,85.95,88.832a16.08,16.08,0,0,1,24.842,13.314,5.631,5.631,0,0,1-5.683,5.6H38.783a5.683,5.683,0,0,1-5.683-5.6A28.014,28.014,0,0,1,61.27,74.3Z" transform="translate(-6.228 -13.981)" fill="#6ea4ff"/>
    <path id="Path_29" data-name="Path 29" d="M615.044,138.94a34.031,34.031,0,0,0-52.444,0,14.369,14.369,0,0,0-1.867-.081,21.326,21.326,0,0,0-21.432,21.27,5.631,5.631,0,0,0,5.683,5.6h84.593a5.683,5.683,0,0,0,5.683-5.6A21.519,21.519,0,0,0,615.044,138.94Z" transform="translate(-101.481 -23.822)" fill="#6ea4ff"/>
    <g id="Group_17" data-name="Group 17" transform="translate(42.54 78.991)">
      <g id="Group_9" data-name="Group 9" transform="translate(87.84)">
        <g id="Group_3" data-name="Group 3" transform="translate(55.286)">
          <path id="Path_35" data-name="Path 35" d="M282.1,175.1V370.511h0l43.352-25V150.1Zm37.994,156.2-32.635,18.834V339.581l32.635-18.834Zm0-19.727-32.635,18.834V319.853l32.635-18.834Zm0-19.727L287.458,310.68V300.126l32.635-18.834Zm0-19.727-32.635,18.834V280.4l32.635-18.834Zm0-19.727-32.635,18.834V260.671l32.635-18.834Zm0-19.727L287.458,251.5V240.944l32.635-18.834v10.554Zm0-19.727L287.458,231.77V221.216l32.635-18.834Zm0-19.727-32.635,18.834V201.489l32.635-18.834Zm0-19.727-32.635,18.834V181.761l32.635-18.834Z" transform="translate(-238.748 -107.235)" fill="#6ea4ff"/>
          <path id="Path_36" data-name="Path 36" d="M315.4,145.96,284.8,128.1v20.052l-12.746,7.306-12.746-7.306V128.1L228.7,145.96l43.352,25Z" transform="translate(-228.7 -103.096)" fill="#367df3"/>
          <path id="Path_37" data-name="Path 37" d="M288.7,389.669l32.635-18.834V360.2L288.7,379.116Z" transform="translate(-239.99 -146.77)" fill="#fff"/>
          <path id="Path_38" data-name="Path 38" d="M288.7,365.369l32.635-18.834V335.9L288.7,354.816Z" transform="translate(-239.99 -142.198)" fill="#fff"/>
          <path id="Path_39" data-name="Path 39" d="M288.7,341.088l32.635-18.834V311.7L288.7,330.534Z" transform="translate(-239.99 -137.644)" fill="#fff"/>
          <path id="Path_40" data-name="Path 40" d="M288.7,316.788l32.635-18.834V287.4L288.7,306.234Z" transform="translate(-239.99 -133.071)" fill="#fff"/>
          <path id="Path_41" data-name="Path 41" d="M288.7,292.488l32.635-18.834V263.1L288.7,281.934Z" transform="translate(-239.99 -128.499)" fill="#fff"/>
          <path id="Path_42" data-name="Path 42" d="M288.7,268.188l32.635-18.834V238.8L288.7,257.634Z" transform="translate(-239.99 -123.926)" fill="#fff"/>
          <path id="Path_43" data-name="Path 43" d="M288.7,243.888l32.635-18.834V214.5L288.7,233.334Z" transform="translate(-239.99 -119.354)" fill="#fff"/>
          <path id="Path_44" data-name="Path 44" d="M288.7,219.588l32.635-18.834V190.2L288.7,209.034Z" transform="translate(-239.99 -114.781)" fill="#fff"/>
          <path id="Path_45" data-name="Path 45" d="M288.7,195.369l32.635-18.916V165.9L288.7,184.734Z" transform="translate(-239.99 -110.209)" fill="#fff"/>
          <path id="Path_46" data-name="Path 46" d="M282.1,116.729v34.665l12.746-7.306V106.5L282.1,113.806Z" transform="translate(-238.748 -99.031)" fill="#6ea4ff"/>
          <path id="Path_47" data-name="Path 47" d="M291.891,104.769,279.146,97.3,266.4,104.769l12.746,7.306Z" transform="translate(-235.794 -97.3)" fill="#367df3"/>
          <path id="Path_48" data-name="Path 48" d="M228.7,150.1V345.507l43.352,25V175.1Zm37.994,200.035L234.058,331.3V320.746l32.635,18.834Zm0-19.727-32.635-18.834V301.019l32.635,18.834Zm0-19.727-32.635-18.834V281.292l32.635,18.834Zm0-19.727-32.635-18.834V261.564L266.694,280.4Zm0-19.727L234.058,252.39V241.837l32.635,18.834Zm0-19.727-32.635-18.834V222.109l32.635,18.834Zm0-19.727-32.635-18.834V202.382l32.635,18.834Zm0-19.727-32.635-18.834V182.654l32.635,18.834Zm0-19.646-32.635-18.834V163.008l32.635,18.834Z" transform="translate(-228.7 -107.235)" fill="#8bb6ff"/>
          <path id="Path_49" data-name="Path 49" d="M279.146,151.394V113.806L266.4,106.5v37.588Z" transform="translate(-235.794 -99.031)" fill="#8bb6ff"/>
          <path id="Path_50" data-name="Path 50" d="M235.3,370.835l32.636,18.834V379.116L235.3,360.2Z" transform="translate(-229.942 -146.77)" fill="#fff"/>
          <path id="Path_51" data-name="Path 51" d="M235.3,346.535l32.636,18.834V354.816L235.3,335.9Z" transform="translate(-229.942 -142.198)" fill="#fff"/>
          <path id="Path_52" data-name="Path 52" d="M235.3,322.254l32.636,18.834V330.534L235.3,311.7Z" transform="translate(-229.942 -137.644)" fill="#fff"/>
          <path id="Path_53" data-name="Path 53" d="M235.3,297.954l32.636,18.834V306.234L235.3,287.4Z" transform="translate(-229.942 -133.071)" fill="#fff"/>
          <path id="Path_54" data-name="Path 54" d="M235.3,273.654l32.636,18.834V281.934L235.3,263.1Z" transform="translate(-229.942 -128.499)" fill="#fff"/>
          <path id="Path_55" data-name="Path 55" d="M235.3,249.354l32.636,18.834V257.634L235.3,238.8Z" transform="translate(-229.942 -123.926)" fill="#fff"/>
          <path id="Path_56" data-name="Path 56" d="M235.3,225.054l32.636,18.834V233.334L235.3,214.5Z" transform="translate(-229.942 -119.354)" fill="#fff"/>
          <path id="Path_57" data-name="Path 57" d="M235.3,200.754l32.636,18.834V209.034L235.3,190.2Z" transform="translate(-229.942 -114.781)" fill="#fff"/>
          <path id="Path_58" data-name="Path 58" d="M235.3,176.454l32.636,18.916V184.734L235.3,165.9Z" transform="translate(-229.942 -110.209)" fill="#fff"/>
        </g>
        <g id="Group_4" data-name="Group 4" transform="translate(129.649 114.874)">
          <path id="Path_59" data-name="Path 59" d="M358.4,304.379V402.2l30.849-17.86V286.6Zm12.259,48.953-7.712,4.465v-48.3l7.712-4.465Zm13.963-8.037-7.712,4.465v-48.3l7.712-4.465Z" transform="translate(-327.469 -247.795)" fill="#f8b9bd"/>
          <path id="Path_60" data-name="Path 60" d="M354.768,295.384l30.849-17.779L368,238.8l-28.9,16.724,4.221,10.878Z" transform="translate(-323.838 -238.8)" fill="#367df3"/>
          <path id="Path_61" data-name="Path 61" d="M381.2,352.088l7.712-4.384V299.4l-7.712,4.384Z" transform="translate(-331.76 -250.203)" fill="#fff"/>
          <path id="Path_62" data-name="Path 62" d="M364,362.069l7.712-4.465V309.3L364,313.765Z" transform="translate(-328.523 -252.066)" fill="#fff"/>
          <path id="Path_63" data-name="Path 63" d="M320.3,286.6v97.744l30.849,17.86V304.379Zm12.34,63.079-7.712-4.465v-48.3l7.712,4.465ZM346.6,357.8l-7.712-4.465v-48.3l7.712,4.465Z" transform="translate(-320.3 -247.795)" fill="#6ea4ff"/>
          <path id="Path_64" data-name="Path 64" d="M339.784,270.279,335.562,259.4,320.3,281.482l30.931,17.779Z" transform="translate(-320.3 -242.676)" fill="#8bb6ff"/>
          <path id="Path_65" data-name="Path 65" d="M343.2,357.6l7.712,4.465v-48.3L343.2,309.3Z" transform="translate(-324.609 -252.066)" fill="#fff"/>
          <path id="Path_66" data-name="Path 66" d="M326,347.7l7.712,4.384v-48.3L326,299.4Z" transform="translate(-321.373 -250.203)" fill="#fff"/>
        </g>
        <g id="Group_5" data-name="Group 5" transform="translate(0 155.952)">
          <path id="Path_67" data-name="Path 67" d="M160.6,419.9v7.388l89.464,51.632v-7.388Z" transform="translate(-160.6 -313.956)" fill="#8bb6ff"/>
          <path id="Path_68" data-name="Path 68" d="M160.6,414.2v4.627l89.464,51.632,30.362-17.535V448.3l-30.362,17.535Z" transform="translate(-160.6 -312.884)" fill="#fff"/>
          <path id="Path_69" data-name="Path 69" d="M250.064,455.832,160.6,404.2v8.118l89.464,51.632Z" transform="translate(-160.6 -311.002)" fill="#8bb6ff"/>
          <path id="Path_70" data-name="Path 70" d="M160.6,398.5v4.627l89.464,51.632,30.362-17.617V432.6l-30.362,17.536Z" transform="translate(-160.6 -309.929)" fill="#fff"/>
          <path id="Path_71" data-name="Path 71" d="M250.064,440.032h0L160.6,388.4v8.2l89.464,51.632Z" transform="translate(-160.6 -308.029)" fill="#8bb6ff"/>
          <path id="Path_72" data-name="Path 72" d="M160.6,382.8v4.546l89.464,51.632h0l30.362-17.536v-4.627l-30.362,17.617Z" transform="translate(-160.6 -306.975)" fill="#fff"/>
          <path id="Path_73" data-name="Path 73" d="M250.064,424.332,160.6,372.7v8.2l89.464,51.632Z" transform="translate(-160.6 -305.075)" fill="#8bb6ff"/>
          <path id="Path_74" data-name="Path 74" d="M160.6,367v4.627l89.464,51.632,30.362-17.535V401.1l-30.362,17.536Z" transform="translate(-160.6 -304.002)" fill="#fff"/>
          <path id="Path_75" data-name="Path 75" d="M250.064,408.551h0L160.6,357v8.118l89.464,51.632Z" transform="translate(-160.6 -302.12)" fill="#8bb6ff"/>
          <path id="Path_76" data-name="Path 76" d="M160.6,351.3v4.627l89.464,51.551h0l30.362-17.536V385.4l-30.362,17.535Z" transform="translate(-160.6 -301.048)" fill="#fff"/>
          <path id="Path_77" data-name="Path 77" d="M250.064,392.832,160.6,341.2v8.2l89.464,51.632Z" transform="translate(-160.6 -299.147)" fill="#8bb6ff"/>
          <path id="Path_78" data-name="Path 78" d="M160.6,335.5v4.627l89.464,51.632,30.362-17.535V369.6l-30.362,17.536Z" transform="translate(-160.6 -298.075)" fill="#fff"/>
          <path id="Path_79" data-name="Path 79" d="M250.064,377.132,160.6,325.5v8.118l89.464,51.632Z" transform="translate(-160.6 -296.193)" fill="#8bb6ff"/>
          <path id="Path_80" data-name="Path 80" d="M250.064,371.432,160.6,319.8v4.627l89.464,51.632,30.362-17.617V353.9Z" transform="translate(-160.6 -295.12)" fill="#fff"/>
          <path id="Path_81" data-name="Path 81" d="M250.064,362.632,160.6,311v7.144l89.464,51.632Z" transform="translate(-160.6 -293.465)" fill="#8bb6ff"/>
          <path id="Path_82" data-name="Path 82" d="M280.426,341.032,190.881,289.4,160.6,306.935l89.464,51.632Z" transform="translate(-160.6 -289.4)" fill="#b3cfff"/>
          <path id="Path_83" data-name="Path 83" d="M270.8,486.823l30.362-17.535V461.9L270.8,479.436Z" transform="translate(-181.336 -321.86)" fill="#367df3"/>
          <path id="Path_84" data-name="Path 84" d="M270.8,471.835,301.162,454.3v-8.2L270.8,463.717Z" transform="translate(-181.336 -318.886)" fill="#367df3"/>
          <path id="Path_85" data-name="Path 85" d="M270.8,456.135,301.162,438.6v-8.2L270.8,447.936Z" transform="translate(-181.336 -315.932)" fill="#367df3"/>
          <path id="Path_86" data-name="Path 86" d="M270.8,440.435l30.362-17.617V414.7L270.8,432.236Z" transform="translate(-181.336 -312.978)" fill="#367df3"/>
          <path id="Path_87" data-name="Path 87" d="M270.8,424.635,301.162,407.1v-8.2L270.8,416.436Z" transform="translate(-181.336 -310.005)" fill="#367df3"/>
          <path id="Path_88" data-name="Path 88" d="M270.8,408.935,301.162,391.4v-8.2L270.8,400.736Z" transform="translate(-181.336 -307.05)" fill="#367df3"/>
          <path id="Path_89" data-name="Path 89" d="M270.8,393.135,301.162,375.6v-8.2L270.8,385.017Z" transform="translate(-181.336 -304.077)" fill="#367df3"/>
          <path id="Path_90" data-name="Path 90" d="M270.8,370.536v7.144h0l30.362-17.535V353Z" transform="translate(-181.336 -301.368)" fill="#367df3"/>
        </g>
        <g id="Group_6" data-name="Group 6" transform="translate(152.38 66.57)">
          <path id="Path_91" data-name="Path 91" d="M401.7,257.086V452.493h0l43.352-25V232Zm38.075,156.2-32.636,18.834V421.562l32.636-18.834Zm0-19.727-32.636,18.834V401.835L439.775,383Zm0-19.727-32.636,18.834V382.107l32.636-18.834Zm0-19.727-32.636,18.834V362.38l32.636-18.834Zm0-19.727-32.636,18.834V342.652l32.636-18.834Zm0-19.727-32.717,18.834V322.925l32.636-18.834v10.554Zm0-19.727-32.636,18.834V303.2l32.636-18.834Zm0-19.727-32.636,18.834V283.47l32.636-18.834Zm0-19.727L407.139,274.3V263.743l32.636-18.834Z" transform="translate(-358.348 -189.217)" fill="#367df3"/>
          <path id="Path_92" data-name="Path 92" d="M435.085,227.879,404.4,210.1v19.971l-12.746,7.388-12.665-7.388V210.1L348.3,227.879l43.352,25.085Z" transform="translate(-348.3 -185.096)" fill="#8bb6ff"/>
          <path id="Path_93" data-name="Path 93" d="M408.3,471.669l32.717-18.834V442.2L408.3,461.116Z" transform="translate(-359.59 -228.77)" fill="#fff"/>
          <path id="Path_94" data-name="Path 94" d="M408.3,447.369l32.717-18.834V417.9L408.3,436.816Z" transform="translate(-359.59 -224.198)" fill="#fff"/>
          <path id="Path_95" data-name="Path 95" d="M408.3,423.069l32.717-18.834V393.6L408.3,412.516Z" transform="translate(-359.59 -219.625)" fill="#fff"/>
          <path id="Path_96" data-name="Path 96" d="M408.3,398.769l32.717-18.834V369.3L408.3,388.216Z" transform="translate(-359.59 -215.053)" fill="#fff"/>
          <path id="Path_97" data-name="Path 97" d="M408.3,374.469l32.717-18.834V345L408.3,363.916Z" transform="translate(-359.59 -210.48)" fill="#fff"/>
          <path id="Path_98" data-name="Path 98" d="M408.3,350.188l32.717-18.834V320.8L408.3,339.634Z" transform="translate(-359.59 -205.926)" fill="#fff"/>
          <path id="Path_99" data-name="Path 99" d="M408.3,325.888l32.717-18.834V296.5L408.3,315.334Z" transform="translate(-359.59 -201.354)" fill="#fff"/>
          <path id="Path_100" data-name="Path 100" d="M408.3,301.588l32.717-18.834V272.2L408.3,291.034Z" transform="translate(-359.59 -196.781)" fill="#fff"/>
          <path id="Path_101" data-name="Path 101" d="M408.3,277.288l32.717-18.834V247.9L408.3,266.734Z" transform="translate(-359.59 -192.209)" fill="#fff"/>
          <path id="Path_102" data-name="Path 102" d="M401.7,198.648v34.746l12.746-7.388V188.5L401.7,195.806Z" transform="translate(-358.348 -181.031)" fill="#367df3"/>
          <path id="Path_103" data-name="Path 103" d="M411.51,186.769,398.765,179.3,386.1,186.769l12.665,7.306Z" transform="translate(-355.413 -179.3)" fill="#8bb6ff"/>
          <path id="Path_104" data-name="Path 104" d="M348.3,232V427.407l43.352,25V257.086Zm38.075,200.116-32.635-18.834V402.728l32.635,18.834Zm0-19.727-32.717-18.834V383l32.636,18.834v10.554Zm0-19.727-32.635-18.834V363.273l32.635,18.834Zm0-19.727L353.739,354.1V343.545l32.635,18.834Zm0-19.727-32.635-18.834V323.818l32.635,18.834Zm0-19.727-32.635-18.834V304.09l32.635,18.834Zm0-19.727-32.635-18.834V284.363L386.375,303.2Zm0-19.727-32.635-18.834V264.635l32.635,18.834Zm0-19.727-32.635-18.834V244.908l32.635,18.834Z" transform="translate(-348.3 -189.217)" fill="#6ea4ff"/>
          <path id="Path_105" data-name="Path 105" d="M398.765,233.394V195.806L386.1,188.5v37.507Z" transform="translate(-355.413 -181.031)" fill="#6ea4ff"/>
          <path id="Path_106" data-name="Path 106" d="M354.9,452.835l32.717,18.834V461.116L354.9,442.2Z" transform="translate(-349.542 -228.77)" fill="#fff"/>
          <path id="Path_107" data-name="Path 107" d="M354.9,428.535l32.717,18.834V436.816L354.9,417.9Z" transform="translate(-349.542 -224.198)" fill="#fff"/>
          <path id="Path_108" data-name="Path 108" d="M354.9,404.235l32.717,18.834V412.516L354.9,393.6Z" transform="translate(-349.542 -219.625)" fill="#fff"/>
          <path id="Path_109" data-name="Path 109" d="M354.9,379.935l32.717,18.834V388.216L354.9,369.3Z" transform="translate(-349.542 -215.053)" fill="#fff"/>
          <path id="Path_110" data-name="Path 110" d="M354.9,355.635l32.717,18.834V363.916L354.9,345Z" transform="translate(-349.542 -210.48)" fill="#fff"/>
          <path id="Path_111" data-name="Path 111" d="M354.9,331.354l32.717,18.834V339.634L354.9,320.8Z" transform="translate(-349.542 -205.926)" fill="#fff"/>
          <path id="Path_112" data-name="Path 112" d="M354.9,307.054l32.717,18.834V315.334L354.9,296.5Z" transform="translate(-349.542 -201.354)" fill="#fff"/>
          <path id="Path_113" data-name="Path 113" d="M354.9,282.754l32.717,18.834V291.034L354.9,272.2Z" transform="translate(-349.542 -196.781)" fill="#fff"/>
          <path id="Path_114" data-name="Path 114" d="M354.9,258.454l32.717,18.834V266.734L354.9,247.9Z" transform="translate(-349.542 -192.209)" fill="#fff"/>
        </g>
        <g id="Group_7" data-name="Group 7" transform="translate(168.292 208.965)">
          <path id="Path_115" data-name="Path 115" d="M494.782,485.2v7.388L405.4,544.22v-7.388Z" transform="translate(-374.956 -379.256)" fill="#8bb6ff"/>
          <path id="Path_116" data-name="Path 116" d="M487.726,479.5v4.627L398.344,535.76,367.9,518.224V513.6l30.444,17.536Z" transform="translate(-367.9 -378.184)" fill="#fff"/>
          <path id="Path_117" data-name="Path 117" d="M405.4,521.132,494.782,469.5v8.118L405.4,529.251Z" transform="translate(-374.956 -376.302)" fill="#8bb6ff"/>
          <path id="Path_118" data-name="Path 118" d="M487.726,463.8v4.627L398.344,520.06,367.9,502.443V497.9l30.444,17.536Z" transform="translate(-367.9 -375.229)" fill="#fff"/>
          <path id="Path_119" data-name="Path 119" d="M405.4,505.332h0L494.782,453.7v8.2L405.4,513.532Z" transform="translate(-374.956 -373.329)" fill="#8bb6ff"/>
          <path id="Path_120" data-name="Path 120" d="M487.726,448.1v4.546l-89.382,51.632h0L367.9,486.743v-4.627l30.444,17.535Z" transform="translate(-367.9 -372.275)" fill="#fff"/>
          <path id="Path_121" data-name="Path 121" d="M405.4,489.632,494.782,438v8.2L405.4,497.751Z" transform="translate(-374.956 -370.375)" fill="#8bb6ff"/>
          <path id="Path_122" data-name="Path 122" d="M487.726,432.3v4.627L398.344,488.56,367.9,471.024V466.4l30.444,17.536Z" transform="translate(-367.9 -369.302)" fill="#fff"/>
          <path id="Path_123" data-name="Path 123" d="M405.4,473.851h0L494.782,422.3v8.118L405.4,482.051Z" transform="translate(-374.956 -367.42)" fill="#8bb6ff"/>
          <path id="Path_124" data-name="Path 124" d="M487.726,416.6v4.627l-89.382,51.551h0L367.9,455.243v-4.627l30.444,17.617Z" transform="translate(-367.9 -366.348)" fill="#fff"/>
          <path id="Path_125" data-name="Path 125" d="M405.4,458.132,494.782,406.5v8.2L405.4,466.332Z" transform="translate(-374.956 -364.447)" fill="#8bb6ff"/>
          <path id="Path_126" data-name="Path 126" d="M487.726,400.8v4.627L398.344,457.06,367.9,439.524V434.9l30.444,17.536Z" transform="translate(-367.9 -363.375)" fill="#fff"/>
          <path id="Path_127" data-name="Path 127" d="M405.4,442.432,494.782,390.8v8.118L405.4,450.551Z" transform="translate(-374.956 -361.493)" fill="#8bb6ff"/>
          <path id="Path_128" data-name="Path 128" d="M398.344,436.732,487.726,385.1v4.627L398.344,441.36,367.9,423.743V419.2Z" transform="translate(-367.9 -360.42)" fill="#fff"/>
          <path id="Path_129" data-name="Path 129" d="M405.4,427.932,494.782,376.3v7.144L405.4,435.076Z" transform="translate(-374.956 -358.764)" fill="#8bb6ff"/>
          <path id="Path_130" data-name="Path 130" d="M367.9,406.332,457.526,354.7l30.2,17.535-89.382,51.632Z" transform="translate(-367.9 -354.7)" fill="#367df3"/>
          <path id="Path_131" data-name="Path 131" d="M398.344,552.123,367.9,534.588V527.2l30.444,17.535Z" transform="translate(-367.9 -387.16)" fill="#b3cfff"/>
          <path id="Path_132" data-name="Path 132" d="M398.344,537.135,367.9,519.6v-8.2l30.444,17.617Z" transform="translate(-367.9 -384.186)" fill="#b3cfff"/>
          <path id="Path_133" data-name="Path 133" d="M398.344,521.435,367.9,503.9v-8.2l30.444,17.535Z" transform="translate(-367.9 -381.232)" fill="#b3cfff"/>
          <path id="Path_134" data-name="Path 134" d="M398.344,505.654,367.9,488.118V480l30.444,17.535Z" transform="translate(-367.9 -378.278)" fill="#b3cfff"/>
          <path id="Path_135" data-name="Path 135" d="M398.344,489.935,367.9,472.4v-8.2l30.444,17.535Z" transform="translate(-367.9 -375.305)" fill="#b3cfff"/>
          <path id="Path_136" data-name="Path 136" d="M398.344,474.235,367.9,456.618V448.5l30.444,17.535Z" transform="translate(-367.9 -372.35)" fill="#b3cfff"/>
          <path id="Path_137" data-name="Path 137" d="M398.344,458.435,367.9,440.9v-8.2l30.444,17.617Z" transform="translate(-367.9 -369.377)" fill="#b3cfff"/>
          <path id="Path_138" data-name="Path 138" d="M398.344,435.835v7.144h0L367.9,425.444V418.3Z" transform="translate(-367.9 -366.668)" fill="#b3cfff"/>
        </g>
        <g id="Group_8" data-name="Group 8" transform="translate(105.781 230.397)">
          <path id="Path_139" data-name="Path 139" d="M322.2,435.194v80.615l25.491-14.694V420.5Zm10.229,40.348L326.1,479.2V439.334l6.332-3.653Zm11.447-6.657-6.332,3.653V432.677l6.332-3.653Z" transform="translate(-296.79 -388.514)" fill="#367df3"/>
          <path id="Path_140" data-name="Path 140" d="M322.2,430.979l25.491-14.694-12.5-18.185-3.572,8.93Z" transform="translate(-296.79 -384.299)" fill="#8bb6ff"/>
          <path id="Path_141" data-name="Path 141" d="M341.1,474.514l6.332-3.653V431l-6.332,3.653Z" transform="translate(-300.346 -390.49)" fill="#fff"/>
          <path id="Path_142" data-name="Path 142" d="M326.9,482.714l6.413-3.653V439.2l-6.413,3.653Z" transform="translate(-297.674 -392.033)" fill="#fff"/>
          <path id="Path_143" data-name="Path 143" d="M325.727,403.831l3.572-8.93-23.949-13.8L290.9,413.086l25.41,14.694,8.793-22.36Z" transform="translate(-290.9 -381.1)" fill="#b3cfff"/>
          <path id="Path_144" data-name="Path 144" d="M290.9,420.5v80.615l25.491,14.694V435.194Zm10.148,52.038-6.332-3.653V429.024l6.332,3.653Zm11.528,6.657-6.332-3.653V435.681l6.332,3.653Z" transform="translate(-290.9 -388.514)" fill="#6ea4ff"/>
          <path id="Path_145" data-name="Path 145" d="M309.7,479.061l6.413,3.653V442.853L309.7,439.2Z" transform="translate(-294.438 -392.033)" fill="#fff"/>
          <path id="Path_146" data-name="Path 146" d="M295.6,470.861l6.332,3.653V434.653L295.6,431Z" transform="translate(-291.784 -390.49)" fill="#fff"/>
        </g>
      </g>
      <g id="Group_10" data-name="Group 10" transform="translate(18.15 133.708)">
        <path id="Path_147" data-name="Path 147" d="M147.294,316.234a6.318,6.318,0,0,0-7.063,2.435l-.731,1.055a4.369,4.369,0,0,1,.325,1.786v.406l41.16,8.2a2.793,2.793,0,0,0,3.329-2.192Z" transform="translate(-86.94 -272.152)" fill="#6ea4ff"/>
        <path id="Path_148" data-name="Path 148" d="M132.7,328.1v75.825h2.76V328.1a3.792,3.792,0,0,1-1.38.244A4.124,4.124,0,0,1,132.7,328.1Z" transform="translate(-85.66 -274.438)" fill="#367df3"/>
        <path id="Path_149" data-name="Path 149" d="M132.772,264.841a2.807,2.807,0,0,0-2.76-2.841l-4.222,38.562a6.162,6.162,0,0,0,3.734,6.413l.974.406a4.364,4.364,0,0,1,2.273-.649Z" transform="translate(-84.352 -262)" fill="#6ea4ff"/>
        <path id="Path_150" data-name="Path 150" d="M77.146,329.151a2.764,2.764,0,0,0-2.354,3.166l38.805-1.461a6.315,6.315,0,0,0,5.845-4.709l.162-.731a5.206,5.206,0,0,1-.893-2.517Z" transform="translate(-74.757 -273.46)" fill="#6ea4ff"/>
        <path id="Path_151" data-name="Path 151" d="M137.93,321.746a6.333,6.333,0,0,0-.325-1.786,4.537,4.537,0,0,0-4.14-2.76,4.364,4.364,0,0,0-2.273.649,4.537,4.537,0,0,0-2.192,3.9v.244a5.523,5.523,0,0,0,.893,2.517,4.872,4.872,0,0,0,2.192,1.624,4.032,4.032,0,0,0,2.76,0,4.558,4.558,0,0,0,3.085-3.9v-.487Z" transform="translate(-84.964 -272.387)" fill="#b3cfff"/>
      </g>
      <g id="Group_11" data-name="Group 11" transform="translate(342.638 181.687)">
        <path id="Path_152" data-name="Path 152" d="M546.994,375.234a6.318,6.318,0,0,0-7.063,2.435l-.731,1.055a4.369,4.369,0,0,1,.325,1.786v.406l41.16,8.2a2.793,2.793,0,0,0,3.328-2.192Z" transform="translate(-486.64 -331.233)" fill="#6ea4ff"/>
        <path id="Path_153" data-name="Path 153" d="M532.4,387.2v75.825h2.76V387.2a3.792,3.792,0,0,1-1.38.244C533.293,387.362,532.806,387.281,532.4,387.2Z" transform="translate(-485.36 -333.538)" fill="#367df3"/>
        <path id="Path_154" data-name="Path 154" d="M532.472,323.941a2.807,2.807,0,0,0-2.76-2.841l-4.221,38.562a6.162,6.162,0,0,0,3.734,6.413l.974.406a4.364,4.364,0,0,1,2.273-.649v-41.89Z" transform="translate(-484.052 -321.1)" fill="#6ea4ff"/>
        <path id="Path_155" data-name="Path 155" d="M476.846,388.251a2.764,2.764,0,0,0-2.354,3.166l38.805-1.461a6.315,6.315,0,0,0,5.845-4.709l.162-.731a5.206,5.206,0,0,1-.893-2.517Z" transform="translate(-474.457 -332.56)" fill="#6ea4ff"/>
        <path id="Path_156" data-name="Path 156" d="M537.53,380.746a6.332,6.332,0,0,0-.325-1.786,4.537,4.537,0,0,0-4.14-2.76,4.365,4.365,0,0,0-2.273.649,4.537,4.537,0,0,0-2.192,3.9v.244a5.524,5.524,0,0,0,.893,2.517,4.872,4.872,0,0,0,2.192,1.624,4.032,4.032,0,0,0,2.76,0,4.558,4.558,0,0,0,3.085-3.9v-.487Z" transform="translate(-484.645 -331.468)" fill="#b3cfff"/>
      </g>
      <g id="Group_12" data-name="Group 12" transform="translate(71.116 213.836)">
        <path id="Path_157" data-name="Path 157" d="M182.1,422.453h-5.2v2.435c1.786-.081,5.439,0,12.746,0h0a4.158,4.158,0,0,0,4.14-4.14v-8.93h-2.192a5.921,5.921,0,0,1-3.572-1.218v5.926A5.96,5.96,0,0,1,182.1,422.453Z" transform="translate(-146.944 -370.09)" fill="none"/>
        <path id="Path_158" data-name="Path 158" d="M156.4,386.718a6.11,6.11,0,0,0-3.572-1.218h-6.9A5.96,5.96,0,0,0,140,391.426v15.993a5.96,5.96,0,0,0,5.926,5.926h6.9a5.921,5.921,0,0,0,3.572-1.218v-25.41Z" transform="translate(-140 -365.367)" fill="#b3cfff"/>
        <path id="Path_159" data-name="Path 159" d="M200.527,377.7h-6.9a5.921,5.921,0,0,0-3.572,1.218,5.844,5.844,0,0,0-2.354,4.709v15.993a5.957,5.957,0,0,0,2.354,4.709,6.11,6.11,0,0,0,3.572,1.218h6.819a5.96,5.96,0,0,0,5.926-5.926V383.626A5.839,5.839,0,0,0,200.527,377.7Z" transform="translate(-148.976 -363.899)" fill="#b3cfff"/>
        <path id="Path_160" data-name="Path 160" d="M171.341,405.351v-5.683l-6.819-6.819a1.205,1.205,0,0,1,1.7-1.7l5.115,5.115v-8.605l-6.819-6.819a1.206,1.206,0,0,1,1.7-1.7l5.115,5.115V378.4a1.218,1.218,0,1,1,2.435,0v8.768h0v3.247l5.115-5.115a1.206,1.206,0,0,1,1.7,1.7l-6.819,6.819v8.605l5.115-5.115a1.206,1.206,0,0,1,1.7,1.7l-6.819,6.819v7.144h5.2a5.96,5.96,0,0,0,5.926-5.926v-5.926a5.844,5.844,0,0,1-2.354-4.709V380.427a5.957,5.957,0,0,1,2.354-4.709v-9.092a5.96,5.96,0,0,0-5.926-5.926H166.226a5.96,5.96,0,0,0-5.926,5.926v40.835a5.886,5.886,0,0,0,5.926,5.52h5.2v-7.631Z" transform="translate(-143.82 -360.7)" fill="#6ea4ff"/>
        <path id="Path_161" data-name="Path 161" d="M188.862,406.167h0v8.93a3.859,3.859,0,0,1-1.218,2.923,3.986,3.986,0,0,1-2.923,1.218h0c-7.388,0-10.96-.081-12.746,0v-9.58l6.819-6.819a1.206,1.206,0,1,0-1.7-1.7l-5.115,5.115v-8.605l6.819-6.819a1.206,1.206,0,0,0-1.7-1.7l-5.115,5.115v-3.247h0v-8.768a1.218,1.218,0,1,0-2.435,0v5.845l-5.115-5.115a1.206,1.206,0,0,0-1.7,1.7l6.819,6.819v8.605l-5.115-5.115a1.206,1.206,0,0,0-1.7,1.7l6.819,6.819v5.683h0V423.3H156.876a4.158,4.158,0,0,1-4.14-4.14V412.5H150.3v6.657a6.548,6.548,0,0,0,6.576,6.576H169.54V436.2h2.435V421.673h12.746a6.193,6.193,0,0,0,4.627-1.948A6.654,6.654,0,0,0,191.3,415.1v-8.93h-2.435Z" transform="translate(-141.938 -364.52)" fill="#367df3"/>
      </g>
      <g id="Group_13" data-name="Group 13" transform="translate(228.043 314.827)">
        <path id="Path_162" data-name="Path 162" d="M370.132,530.5H363.8v7.875Z" transform="translate(-339.039 -493.643)" fill="none"/>
        <path id="Path_163" data-name="Path 163" d="M358.3,530.5H347.5l10.8,4.79Z" transform="translate(-335.972 -493.643)" fill="none"/>
        <path id="Path_164" data-name="Path 164" d="M386.948,496.5H385v15.831h1.948a5.96,5.96,0,0,0,5.926-5.926v-3.9A5.977,5.977,0,0,0,386.948,496.5Z" transform="translate(-343.028 -487.245)" fill="#8bb6ff"/>
        <path id="Path_165" data-name="Path 165" d="M376.457,492.975a7.831,7.831,0,0,0-7.875-7.875H347.475a7.882,7.882,0,0,0-7.875,7.875v12.908h0c.244,0,.487-.081.812-.081h3.9a5.96,5.96,0,0,1,5.926,5.926v3.9a5.876,5.876,0,0,1-5.115,5.845l.893.406h10.8V511.647l-6.819-6.819a1.206,1.206,0,0,1,1.7-1.7l5.115,5.115V502.23a1.218,1.218,0,1,1,2.435,0v12.177l5.115-5.115a1.205,1.205,0,0,1,1.7,1.7l-6.819,6.819v4.14H368.5a7.882,7.882,0,0,0,7.875-7.875V492.975Z" transform="translate(-334.486 -485.1)" fill="#367df3"/>
        <path id="Path_166" data-name="Path 166" d="M341.175,526.449h1.948a3.331,3.331,0,0,0,.893-.081,6.009,6.009,0,0,0,5.115-5.845v-3.9A5.96,5.96,0,0,0,343.2,510.7h-3.9a2.762,2.762,0,0,0-.812.081,6.028,6.028,0,0,0-5.2,5.926v3.9a5.875,5.875,0,0,0,5.033,5.845,3.331,3.331,0,0,0,.893.081h1.948Z" transform="translate(-333.3 -489.917)" fill="#8bb6ff"/>
        <path id="Path_167" data-name="Path 167" d="M365.56,525.645l-6.251,7.875V521.5l6.819-6.819a1.205,1.205,0,0,0-1.7-1.7l-5.115,5.115V505.918a1.218,1.218,0,1,0-2.435,0v6.008l-5.115-5.115a1.205,1.205,0,0,0-1.7,1.7l6.819,6.819v15.019l-10.8-4.79-.893-.406a3.044,3.044,0,0,1-.893.081h-3.9a3.044,3.044,0,0,1-.893-.081l.081.081,17.211,7.794V547.97h2.435V537.417l9.336-11.853h-3Z" transform="translate(-334.467 -488.788)" fill="#6ea4ff"/>
      </g>
      <g id="Group_14" data-name="Group 14" transform="translate(358.991 258.243)">
        <path id="Path_168" data-name="Path 168" d="M531.451,460.8H525.2v7.875Z" transform="translate(-500.358 -423.943)" fill="none"/>
        <path id="Path_169" data-name="Path 169" d="M519.7,460.8H508.9l10.8,4.79Z" transform="translate(-497.291 -423.943)" fill="none"/>
        <path id="Path_170" data-name="Path 170" d="M548.348,426.8H546.4v15.831h1.948a5.96,5.96,0,0,0,5.926-5.926v-3.9A5.977,5.977,0,0,0,548.348,426.8Z" transform="translate(-504.347 -417.545)" fill="#8bb6ff"/>
        <path id="Path_171" data-name="Path 171" d="M537.857,423.275a7.831,7.831,0,0,0-7.875-7.875H508.875A7.831,7.831,0,0,0,501,423.275v12.908h0a2.5,2.5,0,0,1,.812-.081h3.9a5.96,5.96,0,0,1,5.926,5.926v3.9a5.876,5.876,0,0,1-5.115,5.845l.893.406h10.8V441.947l-6.819-6.819a1.206,1.206,0,0,1,1.7-1.7l5.115,5.115V432.53a1.218,1.218,0,1,1,2.435,0v12.1l5.115-5.115a1.206,1.206,0,0,1,1.7,1.7l-6.819,6.819v4.14H529.9a7.882,7.882,0,0,0,7.875-7.875V423.275Z" transform="translate(-495.804 -415.4)" fill="#367df3"/>
        <path id="Path_172" data-name="Path 172" d="M502.556,456.749H504.5a3.329,3.329,0,0,0,.893-.081,6.009,6.009,0,0,0,5.115-5.845v-3.9A5.96,5.96,0,0,0,504.586,441h-3.978a3.046,3.046,0,0,0-.812.081,6.028,6.028,0,0,0-5.2,5.926v3.9a5.875,5.875,0,0,0,5.033,5.845,3.33,3.33,0,0,0,.893.081h2.03Z" transform="translate(-494.6 -420.217)" fill="#8bb6ff"/>
        <path id="Path_173" data-name="Path 173" d="M526.879,455.964l-6.251,7.875V451.824L527.447,445a1.205,1.205,0,0,0-1.7-1.7l-5.115,5.115v-12.1a1.218,1.218,0,1,0-2.435,0v6.008l-5.115-5.115a1.205,1.205,0,0,0-1.7,1.7l6.819,6.819v15.019l-10.8-4.79-.893-.406a3.043,3.043,0,0,1-.893.081h-3.816a3.043,3.043,0,0,1-.893-.081l.081.081,17.211,7.794v14.856h2.435V467.736l9.336-11.853h-3.085Z" transform="translate(-495.786 -419.107)" fill="#6ea4ff"/>
      </g>
      <g id="Group_15" data-name="Group 15" transform="translate(118.202 255.888)">
        <path id="Path_174" data-name="Path 174" d="M234.751,457.9H228.5v7.875Z" transform="translate(-203.739 -421.043)" fill="none"/>
        <path id="Path_175" data-name="Path 175" d="M223,457.9H212.2l10.8,4.79Z" transform="translate(-200.672 -421.043)" fill="none"/>
        <path id="Path_176" data-name="Path 176" d="M251.648,423.9H249.7v15.831h1.948a5.96,5.96,0,0,0,5.926-5.926v-3.9A5.977,5.977,0,0,0,251.648,423.9Z" transform="translate(-207.728 -414.645)" fill="#8bb6ff"/>
        <path id="Path_177" data-name="Path 177" d="M241.157,420.375a7.831,7.831,0,0,0-7.875-7.875H212.175a7.882,7.882,0,0,0-7.875,7.875v12.908h0c.244,0,.487-.081.812-.081h3.9a5.96,5.96,0,0,1,5.926,5.926v3.9a5.876,5.876,0,0,1-5.115,5.845l.893.406h10.8v-10.31l-6.819-6.819a1.206,1.206,0,0,1,1.7-1.7l5.115,5.115v-6.008a1.218,1.218,0,1,1,2.435,0v12.177l5.115-5.115a1.206,1.206,0,0,1,1.7,1.7l-6.819,6.819v4.14H233.2a7.882,7.882,0,0,0,7.875-7.875V420.375Z" transform="translate(-199.185 -412.5)" fill="#367df3"/>
        <path id="Path_178" data-name="Path 178" d="M205.875,453.849h1.948a3.33,3.33,0,0,0,.893-.081,6.009,6.009,0,0,0,5.115-5.845v-3.9A5.96,5.96,0,0,0,207.9,438.1h-3.9a2.761,2.761,0,0,0-.812.081,6.028,6.028,0,0,0-5.2,5.926V448a5.875,5.875,0,0,0,5.033,5.845,3.331,3.331,0,0,0,.893.081h1.948Z" transform="translate(-198 -417.317)" fill="#8bb6ff"/>
        <path id="Path_179" data-name="Path 179" d="M230.16,453.045l-6.251,7.875V448.9l6.819-6.819a1.206,1.206,0,0,0-1.7-1.7l-5.115,5.115V433.318a1.218,1.218,0,0,0-2.435,0v6.008l-5.115-5.115a1.206,1.206,0,0,0-1.7,1.7l6.819,6.819v15.1l-10.8-4.79-.893-.406a3.33,3.33,0,0,1-.893.081h-3.9a3.044,3.044,0,0,1-.893-.081l.081.081,17.211,7.794V475.37h2.435V464.817l9.336-11.853h-3Z" transform="translate(-199.148 -416.188)" fill="#6ea4ff"/>
      </g>
      <g id="Group_16" data-name="Group 16" transform="translate(125.393 210.67)">
        <path id="Path_180" data-name="Path 180" d="M279.494,410.934a6.318,6.318,0,0,0-7.063,2.435l-.731,1.055a4.369,4.369,0,0,1,.325,1.786v.406l41.16,8.2a2.793,2.793,0,0,0,3.328-2.192Z" transform="translate(-219.059 -366.933)" fill="#6ea4ff"/>
        <path id="Path_181" data-name="Path 181" d="M264.8,422.8v75.825h2.76V422.8a3.792,3.792,0,0,1-1.38.244A4.123,4.123,0,0,1,264.8,422.8Z" transform="translate(-217.76 -369.219)" fill="#367df3"/>
        <path id="Path_182" data-name="Path 182" d="M264.872,359.56a2.737,2.737,0,0,0-2.76-2.76l-4.222,38.562a6.162,6.162,0,0,0,3.734,6.413l.974.406a4.364,4.364,0,0,1,2.273-.649Z" transform="translate(-216.452 -356.8)" fill="#6ea4ff"/>
        <path id="Path_183" data-name="Path 183" d="M209.246,423.851a2.764,2.764,0,0,0-2.354,3.166l38.805-1.461a6.315,6.315,0,0,0,5.845-4.709l.162-.731a5.207,5.207,0,0,1-.893-2.517Z" transform="translate(-206.857 -368.241)" fill="#6ea4ff"/>
        <path id="Path_184" data-name="Path 184" d="M270.03,416.446a6.335,6.335,0,0,0-.325-1.786,4.537,4.537,0,0,0-4.14-2.76,4.364,4.364,0,0,0-2.273.649,4.536,4.536,0,0,0-2.192,3.9v.244a5.523,5.523,0,0,0,.893,2.517,4.872,4.872,0,0,0,2.192,1.624,4.032,4.032,0,0,0,2.76,0,4.558,4.558,0,0,0,3.085-3.9c0-.244,0-.325,0-.487Z" transform="translate(-217.064 -367.168)" fill="#b3cfff"/>
      </g>
    </g>
    <g id="Group_18" data-name="Group 18" transform="translate(427.509 174.845)">
      <path id="Path_185" data-name="Path 185" d="M551.519,217.993c-5.115-3-9.985-3.41-13.558-1.3l-8.362,4.871c.162-.081.244-.081.325-.162.244-.081.406-.244.649-.325a1.174,1.174,0,0,1,.568-.162,1.53,1.53,0,0,1,.649-.162,12.6,12.6,0,0,1,1.7-.325h.406a13.621,13.621,0,0,1,3.572.325c.162,0,.244.081.406.081a1.911,1.911,0,0,0,.649.162c.162.081.406.081.568.162.406.162.731.244,1.055.406.406.162.731.325,1.137.487a6.707,6.707,0,0,1,1.055.568c.244.081.406.244.649.325a33.459,33.459,0,0,1,4.546,3.247,35.317,35.317,0,0,1,3.9,3.9h.081a42.123,42.123,0,0,1,5.926,8.849,9.686,9.686,0,0,1,.649,1.3,9.021,9.021,0,0,1,.568,1.3l8.605-5.033C563.7,228.628,557.852,221.646,551.519,217.993Z" transform="translate(-527.165 -215.372)" fill="#367df3"/>
      <path id="Path_186" data-name="Path 186" d="M556.881,240.3a42.124,42.124,0,0,0-5.926-8.849h-.081a29.45,29.45,0,0,0-3.9-3.9,27.621,27.621,0,0,0-4.546-3.247,2.43,2.43,0,0,0-.649-.325c-.325-.162-.731-.406-1.055-.568-.406-.162-.731-.325-1.137-.487s-.731-.244-1.055-.406c-.162-.081-.406-.081-.568-.162a1.91,1.91,0,0,0-.649-.162.732.732,0,0,0-.406-.081,10.873,10.873,0,0,0-3.572-.325h-.406a12.605,12.605,0,0,0-1.7.325c-.244.081-.406.081-.649.162a5.17,5.17,0,0,1-.568.162,1.631,1.631,0,0,0-.649.325c-.162.081-.244.081-.325.162a.283.283,0,0,0-.162.081,9.958,9.958,0,0,0-2.273,1.867l1.948,2.6,4.384-2.6a11.347,11.347,0,0,1,6.251.568,19.613,19.613,0,0,1,3.247,1.542c.081.081.162.081.325.162.812.487,1.542.974,2.354,1.542a18.846,18.846,0,0,1,2.03,1.7,27.9,27.9,0,0,1,2.192,2.192,40.138,40.138,0,0,1,6.089,8.768c.244.406.406.893.649,1.3.081.244.244.487.325.731l1.948-.406c-.162-.406-.406-.893-.568-1.3A4.815,4.815,0,0,1,556.881,240.3Z" transform="translate(-526.6 -216.575)" fill="#6ea4ff"/>
      <path id="Path_187" data-name="Path 187" d="M550.543,233.244l-2.192-2.192c-.649-.568-1.3-1.137-2.03-1.7a19.456,19.456,0,0,0-2.354-1.542c-.081-.081-.162-.081-.325-.162a23.271,23.271,0,0,0-3.247-1.542l-6.495,3.816a2.883,2.883,0,0,1,.731-.325c.162-.081.244-.081.406-.162.325-.081.568-.162.893-.244.081,0,.162-.081.325-.081a.614.614,0,0,0,.325-.081h.893a10.7,10.7,0,0,1,3.41.568,3.513,3.513,0,0,0,.406.081c.812.325,1.624.731,2.517,1.137.568.325,1.218.731,1.786,1.137a26.535,26.535,0,0,1,2.841,2.435,25.246,25.246,0,0,1,2.354,2.679l.731.974a31.66,31.66,0,0,1,3.085,5.115c.244.406.406.893.649,1.3l-1.867.406a8.438,8.438,0,0,1-.325-.812,30.843,30.843,0,0,0-3.085-5.033L549,237.79a31.122,31.122,0,0,0-2.273-2.354l-.081-.081a.283.283,0,0,0-.162-.081,16,16,0,0,0-2.517-1.786c-.162-.081-.244-.162-.406-.244l-5.439,3.166c.081-.081.162-.081.244-.162h0c.081-.081.244-.081.325-.162h.081a.732.732,0,0,1,.406-.081h.081c.162,0,.244-.081.406-.081h.325a6.523,6.523,0,0,1,3.653.974c.081,0,.081.081.162.081a.283.283,0,0,0,.162.081,12.746,12.746,0,0,1,2.679,2.111,15.015,15.015,0,0,1,1.137,1.137,21.157,21.157,0,0,1,3.166,5.033l-1.867.406a13.147,13.147,0,0,0-3-4.384,14.113,14.113,0,0,0-1.218-1.055l-3.491,2.03a.3.3,0,0,1,.244-.081c.081,0,.162-.081.244-.081s.162-.081.244-.081h.244a3.925,3.925,0,0,1,1.7.487,8.2,8.2,0,0,1,3.734,6.413v.406a.732.732,0,0,1-.081.406c0,.162-.081.244-.081.325a.615.615,0,0,1-.162.325c-.081.162-.162.406-.325.487l-.244.244c-.081.081-.162.081-.162.162l8.524-4.952a2.626,2.626,0,0,0,1.055-2.354l1.3-.731a6.476,6.476,0,0,0-.649-1.3A56.817,56.817,0,0,0,550.543,233.244Z" transform="translate(-527.974 -217.391)" fill="#367df3"/>
      <path id="Path_188" data-name="Path 188" d="M549.4,248.22l1.867-.406a21.156,21.156,0,0,0-3.166-5.033,7.522,7.522,0,0,0-1.137-1.137,20.28,20.28,0,0,0-2.679-2.111.283.283,0,0,0-.162-.081c-.081,0-.081-.081-.162-.081a6.523,6.523,0,0,0-3.653-.974h-.325a.732.732,0,0,0-.406.081h-.081c-.162,0-.244.081-.406.081H539a.616.616,0,0,0-.325.162h0c-.081.081-.162.081-.244.162-.081,0-.081.081-.162.081a3.248,3.248,0,0,0-.974.812l1.948,2.6.244-.244-.244.244,1.624-.893a4.825,4.825,0,0,1,3.491.731,4.928,4.928,0,0,1,.812.568,14.11,14.11,0,0,1,1.218,1.055A13.145,13.145,0,0,1,549.4,248.22Z" transform="translate(-528.614 -219.702)" fill="#6ea4ff"/>
      <path id="Path_189" data-name="Path 189" d="M545.769,236.051c.081,0,.081.081.162.081l.081.081a20.885,20.885,0,0,1,2.273,2.354l.974,1.218a24.629,24.629,0,0,1,3.085,5.033,2.433,2.433,0,0,1,.325.812l1.867-.406a6.476,6.476,0,0,0-.649-1.3,40.725,40.725,0,0,0-3.085-5.115l-.731-.974a25.241,25.241,0,0,0-2.354-2.679,26.531,26.531,0,0,0-2.841-2.435,13.348,13.348,0,0,0-1.786-1.137,11.483,11.483,0,0,0-2.517-1.137.732.732,0,0,0-.406-.081,10.7,10.7,0,0,0-3.41-.568h-.893a7568.412,7568.412,0,0,1-.649.162c-.325.081-.568.162-.893.244-.162.081-.244.081-.406.162-.244.081-.487.244-.731.325a7.439,7.439,0,0,0-1.786,1.461l1.867,2.6.406-.406c-.162.081-.244.244-.406.406l3-1.7a9.218,9.218,0,0,1,6.251,1.218c.162.081.244.162.406.244A6.9,6.9,0,0,1,545.769,236.051Zm-11.284-2.273a1.424,1.424,0,0,0-.406.325c.162-.162.325-.244.406-.325.162-.081.325-.244.487-.325C534.81,233.534,534.647,233.7,534.485,233.778Z" transform="translate(-527.503 -218.087)" fill="#6ea4ff"/>
      <path id="Path_190" data-name="Path 190" d="M548.119,254.749a1.7,1.7,0,0,0,.325-.487c.081-.081.081-.162.162-.325,0-.081.081-.244.081-.325,0-.162.081-.244.081-.406V252.8a8.111,8.111,0,0,0-3.734-6.413,3.41,3.41,0,0,0-1.7-.487h-.244a.3.3,0,0,0-.244.081c-.081,0-.162.081-.244.081s-.162.081-.244.081A2.627,2.627,0,0,0,541.3,248.5a8.111,8.111,0,0,0,3.734,6.413,2.529,2.529,0,0,0,2.679.244c.081-.081.162-.081.162-.162C548.038,254.911,548.038,254.83,548.119,254.749Z" transform="translate(-529.366 -221.116)" fill="#6ea4ff"/>
      <path id="Path_195" data-name="Path 195" d="M543.9,223.6" transform="translate(-529.855 -216.92)" fill="none" stroke="#f4969e" stroke-linecap="round" stroke-linejoin="round" stroke-width="1"/>
    </g>
    <g id="Group_19" data-name="Group 19" transform="translate(0 141.136)">
      <path id="Path_210" data-name="Path 210" d="M21.27,177.381c6.982-3.978,13.476-4.627,18.347-1.786l11.366,6.576-.487-.244a4.351,4.351,0,0,0-.893-.406l-.731-.244c-.244-.081-.568-.162-.812-.244a18.883,18.883,0,0,0-2.273-.406h-.568a16.3,16.3,0,0,0-4.79.487c-.162.081-.406.081-.568.162-.325.081-.568.162-.893.244l-.731.244a10.843,10.843,0,0,0-1.461.568,11.5,11.5,0,0,0-1.461.649l-1.461.731a7.137,7.137,0,0,0-.812.487,34.893,34.893,0,0,0-6.17,4.465,53.954,53.954,0,0,0-5.277,5.277.08.08,0,0,0-.081.081h0a59.075,59.075,0,0,0-8.037,11.934,18.314,18.314,0,0,0-.893,1.786,16.224,16.224,0,0,0-.812,1.7L0,202.629C4.79,191.751,12.746,182.252,21.27,177.381Z" transform="translate(0 -173.85)" fill="#367df3"/>
      <path id="Path_211" data-name="Path 211" d="M15.967,207.324A59.074,59.074,0,0,1,24,195.39h0a.08.08,0,0,0,.081-.081,46.259,46.259,0,0,1,5.277-5.277,43.786,43.786,0,0,1,6.17-4.465,7.137,7.137,0,0,0,.812-.487l1.461-.731a11.5,11.5,0,0,1,1.461-.649,10.841,10.841,0,0,1,1.461-.568l.731-.244c.325-.081.568-.162.893-.244.162-.081.406-.081.568-.162A16.85,16.85,0,0,1,47.71,182h.568a10.238,10.238,0,0,1,2.273.406c.325.081.568.162.812.244l.731.244a3,3,0,0,1,.893.406l.487.244c.081.081.162.081.244.162a12.736,12.736,0,0,1,3.085,2.517l-2.6,3.491-5.926-3.491a14.8,14.8,0,0,0-8.443.812,26.443,26.443,0,0,0-4.384,2.03c-.162.081-.244.162-.406.244-1.055.649-2.111,1.38-3.166,2.111-.893.731-1.786,1.461-2.679,2.273q-1.461,1.34-2.923,2.923a53.959,53.959,0,0,0-8.2,11.853c-.325.568-.568,1.218-.893,1.786l-.487.974-2.6-.487a16.228,16.228,0,0,1,.812-1.7A12.011,12.011,0,0,0,15.967,207.324Z" transform="translate(-2.653 -175.379)" fill="#8eb8ff"/>
      <path id="Path_212" data-name="Path 212" d="M27.011,197.98q1.461-1.583,2.923-2.923c.893-.812,1.786-1.542,2.679-2.273a35.74,35.74,0,0,1,3.166-2.111c.162-.081.244-.162.406-.244a23.3,23.3,0,0,1,4.384-2.03l8.768,5.115-.974-.487a1.173,1.173,0,0,0-.568-.162,6.764,6.764,0,0,0-1.218-.325c-.162,0-.244-.081-.406-.081s-.244-.081-.406-.081-.406-.081-.568-.081h-.649a13.132,13.132,0,0,0-4.546.812c-.162.081-.325.081-.487.162a17.855,17.855,0,0,0-3.328,1.624,23.516,23.516,0,0,0-2.354,1.542,35.183,35.183,0,0,0-3.816,3.247,34.723,34.723,0,0,0-3.247,3.572c-.325.406-.649.893-.974,1.3a48.935,48.935,0,0,0-4.222,6.9c-.325.568-.568,1.218-.893,1.786l2.6.487c.162-.325.325-.731.487-1.055a38.471,38.471,0,0,1,4.222-6.819,13.25,13.25,0,0,1,1.38-1.624,27.665,27.665,0,0,1,3.085-3.085c.081-.081.081-.081.162-.081l.162-.162a22.172,22.172,0,0,1,3.41-2.435c.162-.081.406-.244.568-.325l7.388,4.3c-.081-.081-.244-.081-.325-.162h0c-.162-.081-.325-.081-.487-.162h-.081c-.162-.081-.325-.081-.487-.162H42.68c-.162,0-.406-.081-.568-.081h-.406a10.039,10.039,0,0,0-4.952,1.3c-.081,0-.162.081-.244.081s-.081.081-.162.081a17.069,17.069,0,0,0-3.653,2.841c-.487.487-.974.974-1.461,1.542a27.788,27.788,0,0,0-4.3,6.819l2.6.487a18.3,18.3,0,0,1,4.059-5.926,9.575,9.575,0,0,1,1.7-1.461l4.627,2.679c-.081-.081-.162-.081-.325-.162-.081-.081-.162-.081-.325-.081-.081,0-.244-.081-.325-.081H38.62a5.416,5.416,0,0,0-2.273.649,11.072,11.072,0,0,0-5.033,8.605v.568c0,.162.081.325.081.487s.081.325.081.487c.081.162.081.325.162.406a1.917,1.917,0,0,0,.487.731l.325.325c.081.081.162.162.244.162l-11.528-6.657a3.426,3.426,0,0,1-1.461-3.166l-1.7-.974a18.315,18.315,0,0,1,.893-1.786A53.673,53.673,0,0,1,27.011,197.98Z" transform="translate(-3.387 -176.588)" fill="#367df3"/>
      <path id="Path_213" data-name="Path 213" d="M31.5,218.149l-2.6-.487a27.788,27.788,0,0,1,4.3-6.819c.487-.568.974-1.055,1.461-1.542a17.068,17.068,0,0,1,3.653-2.841c.081,0,.081-.081.162-.081a.3.3,0,0,1,.244-.081,9.242,9.242,0,0,1,4.952-1.3h.406c.162,0,.406.081.568.081h.081a1.154,1.154,0,0,1,.487.162H45.3c.162.081.325.081.487.162h0c.081.081.244.081.325.162a.283.283,0,0,1,.162.081,6.053,6.053,0,0,1,1.38,1.137l-2.6,3.491c-.081-.081-.162-.244-.325-.325.081.081.244.162.325.325l-2.192-1.3a6.272,6.272,0,0,0-4.709,1.055c-.325.244-.731.487-1.055.731a13.64,13.64,0,0,0-1.7,1.461A20.868,20.868,0,0,0,31.5,218.149Z" transform="translate(-5.438 -179.709)" fill="#8eb8ff"/>
      <path id="Path_214" data-name="Path 214" d="M36.925,199.351c.162-.081.406-.244.568-.325,3.085-1.624,5.926-2.192,8.362-1.624l4.059,2.354-.487-.487.487.487,2.6-3.491a10.354,10.354,0,0,0-2.354-1.948l-.974-.487a1.173,1.173,0,0,0-.568-.162,6.764,6.764,0,0,0-1.218-.325c-.162,0-.244-.081-.406-.081s-.244-.081-.406-.081-.406-.081-.568-.081h-.649a13.131,13.131,0,0,0-4.546.812c-.162.081-.325.081-.487.162a17.854,17.854,0,0,0-3.328,1.624,23.51,23.51,0,0,0-2.354,1.542,35.182,35.182,0,0,0-3.816,3.247,34.722,34.722,0,0,0-3.247,3.572c-.325.406-.649.893-.974,1.3a48.935,48.935,0,0,0-4.222,6.9c-.325.568-.568,1.218-.893,1.786l2.6.487c.162-.325.325-.731.487-1.055a38.471,38.471,0,0,1,4.222-6.819,13.249,13.249,0,0,1,1.38-1.624,27.665,27.665,0,0,1,3.085-3.085c.081-.081.081-.081.162-.081l.162-.162A16.383,16.383,0,0,1,36.925,199.351Zm11.122-1.137a2.849,2.849,0,0,1,.649.406,2.153,2.153,0,0,1,.487.406,2.153,2.153,0,0,0-.487-.406A4.529,4.529,0,0,1,48.047,198.215Z" transform="translate(-4.046 -177.472)" fill="#8eb8ff"/>
      <path id="Path_215" data-name="Path 215" d="M35.212,227.034a2.833,2.833,0,0,1-.487-.731c-.081-.162-.081-.244-.162-.406a1.03,1.03,0,0,1-.081-.487c0-.162-.081-.325-.081-.487v-.568a10.946,10.946,0,0,1,5.033-8.605,4.242,4.242,0,0,1,2.273-.649h.325c.081,0,.244.081.325.081s.162.081.325.081a.616.616,0,0,1,.325.162,3.484,3.484,0,0,1,1.461,3.247,10.737,10.737,0,0,1-5.033,8.605,3.567,3.567,0,0,1-3.653.325c-.081-.081-.162-.081-.244-.162A2.222,2.222,0,0,0,35.212,227.034Z" transform="translate(-6.473 -181.612)" fill="#8eb8ff"/>
    </g>
    <g id="Group_20" data-name="Group 20" transform="translate(110.487 119.311)">
      <path id="Path_235" data-name="Path 235" d="M156.4,174.481a2.41,2.41,0,0,0,1.3-.081A2.443,2.443,0,0,1,156.4,174.481Z" transform="translate(-139.917 -152.128)" fill="none"/>
      <path id="Path_236" data-name="Path 236" d="M146.653,165.909a10.813,10.813,0,0,1,.406-1.542,17.529,17.529,0,0,1,2.192-4.709,20.607,20.607,0,0,1,2.354-2.923,15.413,15.413,0,0,1,3.166-2.517,7.259,7.259,0,0,1,4.871-1.137c.081,0,.162.081.325.081.081,0,.162.081.244.081s.162.081.244.081.081.081.162.081l-10.229-5.926a4.7,4.7,0,0,0-1.137-.406,6.827,6.827,0,0,0-4.871,1.137,17.6,17.6,0,0,0-5.52,5.439c-2.679,4.059-3.41,8.849-2.192,11.853l10.31,6.008A10.579,10.579,0,0,1,146.653,165.909Z" transform="translate(-136.097 -146.966)" fill="#b3cfff"/>
      <path id="Path_237" data-name="Path 237" d="M136.8,169.9l7.875,19,10.229,5.926-7.794-19Z" transform="translate(-136.229 -151.281)" fill="#b3cfff"/>
      <path id="Path_238" data-name="Path 238" d="M163.011,154.907c-.081,0-.081-.081-.162-.081a.3.3,0,0,0-.244-.081c-.081,0-.162-.081-.244-.081s-.162-.081-.325-.081a7.26,7.26,0,0,0-4.871,1.137A15.412,15.412,0,0,0,154,158.235a20.606,20.606,0,0,0-2.354,2.923,18.978,18.978,0,0,0-2.192,4.709c-.162.487-.244,1.055-.406,1.542a10.579,10.579,0,0,0,.325,5.6l7.794,19,7.631-27.846C166.015,159.859,165.284,156.125,163.011,154.907Zm-5.926,15.344a4.35,4.35,0,0,1-.893.406,2.41,2.41,0,0,1-1.3.081.3.3,0,0,1-.244-.081c-.081,0-.162-.081-.244-.081h-.081a2.591,2.591,0,0,1-.974-2.354v-.081A8.1,8.1,0,0,1,157,161.807a2.664,2.664,0,0,1,2.517-.325c.081,0,.081.081.162.081a1.771,1.771,0,0,1,.406.325c.081.081.162.162.162.244.081.081.081.162.162.244,0,.081.081.162.081.244a.251.251,0,0,0,.081.162c0,.081.081.244.081.325a.488.488,0,0,0,.081.325v.487A7.684,7.684,0,0,1,157.085,170.25Z" transform="translate(-138.491 -148.384)" fill="#6ea4ff"/>
      <path id="Path_239" data-name="Path 239" d="M161.806,164.68c0-.081-.081-.244-.081-.325s0-.081-.081-.162c0-.081-.081-.162-.081-.244-.081-.081-.081-.162-.162-.244s-.081-.162-.162-.244a.811.811,0,0,0-.406-.325c-.081,0-.081-.081-.162-.081a2.664,2.664,0,0,0-2.517.325,8.1,8.1,0,0,0-3.653,6.332v.081a2.8,2.8,0,0,0,.974,2.354h.081a.3.3,0,0,0,.244.081c.081,0,.162.081.244.081a2.41,2.41,0,0,0,1.3-.081,6.99,6.99,0,0,0,4.546-6.819v-.487A.3.3,0,0,1,161.806,164.68Z" transform="translate(-139.56 -149.958)" fill="#fff"/>
    </g>
    <g id="Group_21" data-name="Group 21" transform="translate(295.911 58.37)">
      <path id="Path_240" data-name="Path 240" d="M388.9,113.4Z" transform="translate(-369.091 -79.709)" fill="none"/>
      <path id="Path_241" data-name="Path 241" d="M388.744,113.5c-.081.081-.162.081-.244.162l.244-.162Z" transform="translate(-369.016 -79.728)" fill="none"/>
      <path id="Path_242" data-name="Path 242" d="M402.6,103.8Z" transform="translate(-371.669 -77.903)" fill="#cb82b6"/>
      <path id="Path_243" data-name="Path 243" d="M399.086,107.481h0l.244-.081Z" transform="translate(-370.996 -78.58)" fill="#cb82b6"/>
      <path id="Path_244" data-name="Path 244" d="M392.589,104.167l-5.358,3.085.649-.893.244-.325a1.058,1.058,0,0,0-.081-.974l-.406-.731-.244-.406h0l-.487-.812v-.162h-.081a.808.808,0,0,1-.081-.731c.081-.162.081-.244.162-.406,0-.081,0-.081.081-.162h0l.244-.162h.162l1.542.406h0c.162,0,.244,0,.325-.081h0v-.081c.081,0,.081-.081.081-.162h0V99.3a1.572,1.572,0,0,0-.487-1.055l-1.542-1.38a2.163,2.163,0,0,1-.487-.812,1.2,1.2,0,0,1-.081-.568c-.081-.325,0-.568.162-.649l8.037-4.627-6.9,3.978a.588.588,0,0,0,.162-.649l.244-.162a.3.3,0,0,1-.244.081c0-.081,0-.081-.081-.162l-.893-2.354a1.768,1.768,0,0,0-.568-.731c-.081,0-.081-.081-.162-.081l-1.542-.406c-.081,0-.081-.081-.162-.081a1.4,1.4,0,0,1-.487-.487,1.7,1.7,0,0,0-.325-.487,1.25,1.25,0,0,1-.162-.893l.406-1.542a1.363,1.363,0,0,0-.325-1.055l-1.542-1.948-.244-.244c.081-.081.162-.081.244-.162l-.244.162h-.081a.537.537,0,0,0-.487-.081l-.731.406-.406.244a.382.382,0,0,1-.487-.081.175.175,0,0,1-.162-.162l-.406-.406a1.685,1.685,0,0,1-.487-.812l-.406-2.03a1.414,1.414,0,0,0-.649-.974l-.731-.406-.162-.081-.325-.162-.649-.406a.3.3,0,0,0-.244-.081h-.244c-.081,0-.081.081-.162.162v.081l-.325,1.055-.081.325h0v.081h0v.081a.283.283,0,0,1-.081.162l-.081.081h-.244c-.081,0-.244-.081-.325-.081a.284.284,0,0,1-.162-.081,1.378,1.378,0,0,1-.487-.487l.081-.081h-.162l-.487-.731h0l-.244-.406-.406-.649a1.378,1.378,0,0,0-.487-.487.488.488,0,0,0-.325-.081l-.568.081-.974.081,5.52-3.166,3.085-1.786h-.162l-3,1.786-5.52,3.247h0c-.162.081-.244.325-.244.649h0l.406,2.03h0c.081.325,0,.568-.162.649h0c-.081,0-.081.081-.162.081l-.081.081a.518.518,0,0,1-.487,0c-.081,0-.081-.081-.162-.162l-1.542-1.38-.162-.162a.537.537,0,0,0-.487-.081c-.081,0-.081.081-.162.081l-.893,1.3a1.058,1.058,0,0,0,.081.974l1.055,1.867.081.081h0a1.25,1.25,0,0,1,.162.893.732.732,0,0,0-.081.406h0a.175.175,0,0,1-.162.162l-.081.081h-.244l-1.542-.406h-.244a.491.491,0,0,0-.244.487v2.03a1.429,1.429,0,0,0,.487,1.055l1.542,1.38a2.163,2.163,0,0,1,.487.812,1.2,1.2,0,0,1,.081.568c.081.325,0,.568-.162.649l-1.137.649c-.244.081-.244.487-.081.893l.893,2.273a1.3,1.3,0,0,0,.568.731c.081,0,.081.081.162.081l1.542.406c.081,0,.081,0,.162.081a1.142,1.142,0,0,1,.487.568,1.7,1.7,0,0,0,.325.487,1.25,1.25,0,0,1,.162.893l-.406,1.542a1.363,1.363,0,0,0,.325,1.055l1.542,1.948c.081.162.244.244.325.325a.537.537,0,0,0,.487.081l1.137-.649a.518.518,0,0,1,.487,0c.081.081.162.081.162.162a1.426,1.426,0,0,0,.406.325,1.685,1.685,0,0,1,.487.812l.406,2.03a1.616,1.616,0,0,0,.649.974l1.786,1.055a1.03,1.03,0,0,0,.487.081h0l.081-.081c0-.081.081-.081.081-.162l.406-1.542.487-.244h.081c.162,0,.244.081.406.081.081,0,.162.081.244.081a.831.831,0,0,1,.406.487h0v.081l1.137,1.867a1.378,1.378,0,0,0,.487.487.488.488,0,0,0,.325.081l1.542-.162c.081,0,.081,0,.162-.081h0l.081-.081.081-.081q.122-.122,0-.487l-.406-2.03c-.081-.325,0-.568.162-.649.081-.081.162-.081.244-.162h.162a.883.883,0,0,1,.406.081c.081,0,.081.081.162.081l1.542,1.38h0l.162.162a.488.488,0,0,0,.325.081h.162l.081-.081ZM376.84,98.079a9.587,9.587,0,0,1-4.3-7.469V89.96a2.839,2.839,0,0,1,.244-.974c0-.081.081-.162.081-.244l.244-.487.162-.162a.81.81,0,0,1,.406-.325,3.069,3.069,0,0,1,3.085.244,9.567,9.567,0,0,1,4.3,7.388h0a3.1,3.1,0,0,1-1.218,2.76.08.08,0,0,0-.081.081c-.081,0-.162.081-.244.081a.3.3,0,0,1-.244.081h-.325A2.1,2.1,0,0,1,376.84,98.079Z" transform="translate(-364.5 -71.938)" fill="#6ea4ff"/>
      <path id="Path_245" data-name="Path 245" d="M398.8,93.251l-1.542-1.38a2.163,2.163,0,0,1-.487-.812,1.2,1.2,0,0,1-.081-.568c-.081-.325,0-.568.162-.649l1.137-.649c.244-.162.244-.487.081-.893l-.893-2.354a1.3,1.3,0,0,0-.568-.731c-.081,0-.081-.081-.162-.081l-1.542-.406c-.081,0-.081-.081-.162-.081a1.4,1.4,0,0,1-.487-.487,1.7,1.7,0,0,0-.325-.487,1.25,1.25,0,0,1-.162-.893l.406-1.542a1.363,1.363,0,0,0-.325-1.055l-1.542-1.948c-.081-.162-.244-.244-.325-.325a1.03,1.03,0,0,0-.487-.081l-.325.162-.812.487a.382.382,0,0,1-.487-.081c-.081-.081-.162-.081-.162-.162-.162-.081-.244-.244-.406-.325a1.685,1.685,0,0,1-.487-.812l-.406-2.03a1.257,1.257,0,0,0-.649-.893l-1.786-1.055a1.03,1.03,0,0,0-.487-.081l-2.192,1.3-1.137-1.867a1.379,1.379,0,0,0-.487-.487.488.488,0,0,0-.325-.081l-1.542.162-3.085,1.786-5.52,3.166.974-.081.487-.081a.488.488,0,0,1,.325.081,1.379,1.379,0,0,1,.487.487l.406.649.244.406,2.192-1.3h-.081l-2.192,1.218h0l.487.731h.162l-.081.081a1.378,1.378,0,0,0,.487.487.283.283,0,0,1,.162.081.488.488,0,0,1,.325.081h.244a.08.08,0,0,0,.081-.081c.081,0,.081-.081.081-.162v-.081h0V79.45h0l.081-.325.325-1.055v-.081a.175.175,0,0,1,.162-.162h.244a.3.3,0,0,1,.244.081l.649.406.325.162.162.081.731.406a1.414,1.414,0,0,1,.649.974l.406,2.03a1.38,1.38,0,0,0,.487.812c.162.081.244.244.406.406.081.081.162.081.162.162a.537.537,0,0,0,.487.081l.406-.244.731-.406a.382.382,0,0,1,.487.081h.081l.244-.162c-.081.081-.162.081-.244.162l.244.244L385,85.052a1.363,1.363,0,0,1,.325,1.055l-.406,1.542a1.25,1.25,0,0,0,.162.893,1.7,1.7,0,0,0,.325.487,1.378,1.378,0,0,0,.487.487c.081,0,.081.081.162.081L387.6,90c.081,0,.081,0,.162.081a1.3,1.3,0,0,1,.568.731l.893,2.354c0,.081.081.081.081.162.081,0,.162-.081.244-.081l-.244.162c.081.325,0,.568-.162.649l6.9-3.978L388,94.712c-.162.081-.244.325-.162.649a1.2,1.2,0,0,1,.081.568,1.381,1.381,0,0,0,.487.812l1.542,1.38a1.309,1.309,0,0,1,.487,1.055v2.273h0c0,.081-.081.081-.081.162v.081h0c-.081.081-.162.081-.325.081h0l-1.542-.406h-.162l-.244.162h0a.283.283,0,0,0-.081.162c0,.162-.081.244-.162.406a1.146,1.146,0,0,0,.081.731H388v.162l.487.812h0l.244.406.406.731a.87.87,0,0,1,.081.974l-.244.325-.649.893,5.358-3.085-5.358,3.085a.08.08,0,0,1-.081.081l8.524-4.952a.08.08,0,0,0,.081-.081l.893-1.3a1.059,1.059,0,0,0-.081-.974l-1.055-1.867-.081-.081a.283.283,0,0,1-.081-.162l2.517-1.461v-2.03C399.289,93.982,399.046,93.576,398.8,93.251Zm-4.952,7.55.244-.081-.244.081Z" transform="translate(-365.761 -71.9)" fill="#b3cfff"/>
      <path id="Path_246" data-name="Path 246" d="M390.972,114.942h0l-1.542-1.38c-.081-.081-.081-.081-.162-.081a.883.883,0,0,0-.406-.081h-.244l-.162.081c-.162.081-.244.325-.162.649l.406,2.03v.487a.08.08,0,0,1-.081.081l-.081.081,3-1.7a.488.488,0,0,1-.325-.081A.3.3,0,0,1,390.972,114.942Z" transform="translate(-368.971 -79.709)" fill="#b3cfff"/>
      <path id="Path_247" data-name="Path 247" d="M383.492,114.649a2.153,2.153,0,0,0-.406-.487c-.081,0-.162-.081-.244-.081-.162,0-.244-.081-.406-.081h-.081l-.487.244-.406,1.542c0,.081,0,.081-.081.162l-.081.081,2.192-1.3v-.081Z" transform="translate(-367.661 -79.822)" fill="#b3cfff"/>
      <path id="Path_248" data-name="Path 248" d="M381.076,102.256h.162c.081,0,.162-.081.244-.081s.162-.081.244-.081a.08.08,0,0,0,.081-.081,3.1,3.1,0,0,0,1.218-2.76h0a9.439,9.439,0,0,0-4.3-7.388,2.89,2.89,0,0,0-3.085-.244,1.425,1.425,0,0,0-.406.325l-.162.162c-.081.162-.244.244-.244.487a.3.3,0,0,0-.081.244,3.422,3.422,0,0,0-.244.974v.649a9.587,9.587,0,0,0,4.3,7.469,3.42,3.42,0,0,0,2.192.568C380.995,102.256,380.995,102.256,381.076,102.256Z" transform="translate(-366.382 -75.547)" fill="#fff"/>
      <path id="Path_249" data-name="Path 249" d="M376.992,78.5,374.8,79.8Z" transform="translate(-366.438 -73.142)" fill="#cb82b6"/>
      <path id="Path_250" data-name="Path 250" d="M367.487,79.333c.081,0,.081.081.162.162l1.542,1.38.162.162c.162.081.325.162.487,0l.081-.081c.081,0,.081-.081.162-.081h0c.162-.081.244-.325.162-.649h0l-.406-2.03h0c-.081-.325,0-.568.244-.649h0l5.52-3.247h-.162L367,79.252A.537.537,0,0,1,367.487,79.333Z" transform="translate(-364.97 -72.352)" fill="#b3cfff"/>
      <path id="Path_251" data-name="Path 251" d="M364.825,86.918l1.542.406h.244a.08.08,0,0,0,.081-.081l.162-.162h0c0-.162.081-.244.081-.406a1.25,1.25,0,0,0-.162-.893h0l-.081-.081L364.5,87h.081A.3.3,0,0,1,364.825,86.918Z" transform="translate(-364.5 -74.497)" fill="#b3cfff"/>
    </g>
    <g id="Group_22" data-name="Group 22" transform="translate(364.511 49.684)">
      <path id="Path_252" data-name="Path 252" d="M503.987,87.9l-.081,26.06-8.605,5.033.081-26.06Z" transform="translate(-457.712 -66.224)" fill="#367df3"/>
      <path id="Path_253" data-name="Path 253" d="M480.924,84.581l-8.93-5.2L449.1,66.152l8.605-4.952,37.588,21.676-8.605,5.033Z" transform="translate(-449.019 -61.2)" fill="#b3cfff"/>
      <path id="Path_254" data-name="Path 254" d="M449.081,67.3l18.753,23.868,18.834-2.111-.081,26.06L449,93.36Z" transform="translate(-449 -62.348)" fill="#8eb8ff"/>
      <path id="Path_255" data-name="Path 255" d="M480.924,85.729l5.764,3.328-18.834,2.111L449.1,67.3l22.894,13.233Z" transform="translate(-449.019 -62.348)" fill="#fff"/>
    </g>
    <g id="Group_23" data-name="Group 23" transform="translate(138.011 4.293)">
      <path id="Path_256" data-name="Path 256" d="M179.336,58.716h0c-.081-.081-.162-.162-.162-.244-.081-.162-.162-.244-.244-.406a.488.488,0,0,1-.081-.325v-.162c0-.081-.081-.162-.081-.325v-.487l-.162-15.993V36.8a6.18,6.18,0,0,1,.244-1.7,6.891,6.891,0,0,1,.731-1.786,8.067,8.067,0,0,1,2.841-3.085l33.529-19.4a3.925,3.925,0,0,1,1.7-.487h.406a.3.3,0,0,1,.244.081c.081,0,.081.081.162.081h.081l-8.524-4.952a2.717,2.717,0,0,0-2.679.244l-33.529,19.4A8.363,8.363,0,0,0,170,31.763l.081,19.809a2.554,2.554,0,0,0,1.137,2.435l8.524,4.952c-.081-.081-.162-.081-.244-.162A.251.251,0,0,1,179.336,58.716Z" transform="translate(-170 -5.288)" fill="#367df3"/>
      <path id="Path_257" data-name="Path 257" d="M190.081,46.641H190v5.845l5.115-2.923-.081-5.764Z" transform="translate(-173.763 -12.534)" fill="#fff"/>
      <path id="Path_258" data-name="Path 258" d="M211.024,65.494l-.162-.162c-.081-.081-.081-.162-.162-.244L207.615,57.7l-4.79,2.76-.325.162c.081.081.162.162.244.162l8.524,4.952-.081-.081C211.105,65.656,211.105,65.575,211.024,65.494Z" transform="translate(-176.116 -15.15)" fill="#367df3"/>
      <path id="Path_259" data-name="Path 259" d="M202.981,39.223H202.9v5.845l5.115-2.923-.081-5.845Z" transform="translate(-176.191 -11.123)" fill="#fff"/>
      <path id="Path_260" data-name="Path 260" d="M221.841,14.179a2.554,2.554,0,0,0-1.137-2.435.08.08,0,0,1-.081-.081h-.081c-.081,0-.081-.081-.162-.081s-.162-.081-.244-.081h-.406a3.651,3.651,0,0,0-1.7.487l-33.61,19.4a8.067,8.067,0,0,0-2.841,3.085,8.283,8.283,0,0,0-.731,1.786,6.18,6.18,0,0,0-.244,1.7v3.978l.081,15.831v.487a.488.488,0,0,0,.081.325v.162c0,.162.081.244.081.325a1.774,1.774,0,0,0,.244.406c.081.081.081.162.162.244h0c.081.081.081.162.162.162.081.081.162.162.244.162h.081a2.711,2.711,0,0,0,2.679-.244L198.3,51.767l.325-.162,4.79-2.76,3.085,7.388c0,.081.081.162.162.244s.081.162.162.162c.081.081.081.162.162.162a.08.08,0,0,0,.081.081l.081.081a1.956,1.956,0,0,0,1.867-.162,5.94,5.94,0,0,0,2.517-3.41l3-10.96,3.41-1.948a8.363,8.363,0,0,0,3.816-6.576Zm-33.61,32.23V40.563h.081l5.033-2.923v5.845ZM198.7,40.4V34.637h.081l5.033-2.923V37.56Zm10.473-6.089V28.548h.081l5.033-2.923v5.845Z" transform="translate(-171.995 -6.457)" fill="#6ea4ff"/>
      <path id="Path_261" data-name="Path 261" d="M215.881,31.741l-.081.081v5.764l5.033-2.923V28.9Z" transform="translate(-178.618 -9.731)" fill="#fff"/>
    </g>
    <path id="Path_262" data-name="Path 262" d="M41.5,242v48.872H90.94" transform="translate(-7.809 -45.537)" fill="none" stroke="#367df3" stroke-width="3" stroke-dasharray="8"/>
    <path id="Path_263" data-name="Path 263" d="M193.236,262.656V244.877H160.6V209.4" transform="translate(-30.22 -39.403)" fill="none" stroke="#367df3" stroke-width="3" stroke-dasharray="8"/>
    <path id="Path_264" data-name="Path 264" d="M213.3,80.1v80.533h12.5" transform="translate(-40.137 -15.073)" fill="none" stroke="#367df3" stroke-width="3" stroke-dasharray="8"/>
    <path id="Path_265" data-name="Path 265" d="M371.289,126.6v54.311H343.2" transform="translate(-64.58 -23.822)" fill="none" stroke="#367df3" stroke-width="3" stroke-dasharray="8"/>
    <path id="Path_266" data-name="Path 266" d="M466.979,122.8v69.411h16.8v66.57H464.3" transform="translate(-87.368 -23.107)" fill="none" stroke="#367df3" stroke-width="3" stroke-dasharray="8"/>
    <path id="Path_267" data-name="Path 267" d="M537.523,266v24.761H504.4v49.765" transform="translate(-94.914 -50.054)" fill="none" stroke="#367df3" stroke-width="3" stroke-dasharray="8"/>
  </g>
</svg>
